<?xml version="1.0" encoding="utf-8"?>
<!-- Generator: Adobe Illustrator 20.1.0, SVG Export Plug-In . SVG Version: 6.00 Build 0)  -->
<svg version="1.1" id="Layer_1" xmlns="http://www.w3.org/2000/svg" xmlns:xlink="http://www.w3.org/1999/xlink" x="0px" y="0px"
	 viewBox="0 0 778.2 833.6" style="enable-background:new 0 0 778.2 833.6;" xml:space="preserve">
<style type="text/css">
	.st0{fill:#FFFFFF;}
</style>
<g>
	<path class="st0" d="M7,722.7c-0.1,11.1,1,22.8,4.6,33.3c5.5,16.4,11.7,26.6,22.7,39.7c13.1,15.6,33.6,25.9,52.8,31.6
		c16.7,5,35,6.6,52.4,6.3c20-0.3,40-3.3,59.6-7.1c34.1-6.5,66.7-18.4,98.2-32.6c28.7-13,54.9-31.4,80.1-50.1
		c30.5-22.7,60.5-46.1,92.2-67.1c22.5-14.9,45.4-29.1,68-43.8c47.5-30.9,94.5-62.8,142.9-92.1c4.3-2.6,8.8-5.1,13.2-7.6
		c14-8.1,26.8-17.2,39.4-27.4c28.1-22.7,43.8-57.5,45-93.3c0.3-9.8-1.5-20-3-29.5c-0.9-5.4-2.2-10.8-4.1-15.9
		c-5.2-14.4-11.4-28.9-20.4-41.4c-9.5-13.3-19.7-25.8-31.9-36.8c-12.6-11.3-26.2-21.5-40-31.3c-36.1-25.4-75-45.6-113.4-67.1
		c-39.2-22-75.5-48.5-113.8-71.9c-42.2-25.8-87.2-47-132.6-66.3c-28.3-12-56.7-23.5-85.8-33.5c-28.4-9.8-57.6-18.2-88-18.7
		c-36.5-0.5-76,11.7-101.5,38.8c-15,15.9-23.6,32.7-31.1,53c-2.1,5.6-3.7,11.4-4.8,17.3c-5.5,29.2-6.9,59.1-7.4,88.7
		c-1,61.4,1.5,122.9,5.3,184.2c1.5,24.5,4.3,49,5,73.5c1.3,43.5-4.1,86.8-5.6,130.2c-0.8,23.3-0.3,46.7,1.8,69.9
		c-0.3,8.9,1.5,17.1,5.5,24.8c2.6,8,7,14.9,13.3,20.7c11.2,11.2,29.5,19.6,45.5,18.8c16.6-0.7,33.9-6.2,45.5-18.8
		c10.9-11.9,20.4-28.7,18.8-45.5c-4.3-47.1-0.4-93.7,2.5-140.7c1.4-23.3,2.1-46.7,0.9-70c-0.6-12.5-2-24.9-2.9-37.4
		c-4.4-59-6.8-118.4-7.1-177.6c-0.2-31.6-0.3-63.6,3.9-94.9c-0.8,5.7-1.5,11.4-2.3,17.1c1.4-10.6,3.9-20.6,8-30.5
		c-2.2,5.1-4.3,10.2-6.5,15.4c2.4-5.4,5.1-10.5,8.6-15.2c-3.4,4.3-6.7,8.7-10.1,13c3-3.9,6.3-7.3,10.2-10.4
		c-4.3,3.4-8.7,6.7-13,10.1c4.2-3.2,8.6-5.7,13.4-7.8c-5.1,2.2-10.2,4.3-15.4,6.5c7-2.9,14.3-4.7,21.8-5.8
		c-5.7,0.8-11.4,1.5-17.1,2.3c9.8-1.2,19.6-0.9,29.4,0.3c-5.7-0.8-11.4-1.5-17.1-2.3c22.1,3.1,43.4,10.7,64.4,18.1
		c21,7.4,41.8,15.6,62.4,24.2c-5.1-2.2-10.2-4.3-15.4-6.5c54.7,23.2,107.7,49.6,157.5,82c23.1,15,45.9,30.7,69.6,44.9
		c22.3,13.5,45.5,25.4,68.3,38.1c26.8,14.9,53,31,77.3,49.7c-4.3-3.4-8.7-6.7-13-10.1c12.1,9.4,23.6,19.6,33.1,31.7
		c-3.4-4.3-6.7-8.7-10.1-13c6.1,7.9,11.2,16.4,15.1,25.6c-2.2-5.1-4.3-10.2-6.5-15.4c2.9,7,4.9,14.2,6,21.7
		c-0.8-5.7-1.5-11.4-2.3-17.1c0.7,5.8,0.7,11.6,0,17.4c0.8-5.7,1.5-11.4,2.3-17.1c-0.7,4.8-2,9.5-3.8,14c2.2-5.1,4.3-10.2,6.5-15.4
		c-2,4.7-4.6,9-7.6,13c3.4-4.3,6.7-8.7,10.1-13c-4.8,6.2-10.5,11.4-16.7,16.2c4.3-3.4,8.7-6.7,13-10.1c-12.7,9.6-27,16.8-40.5,25.2
		c-10.9,6.7-21.7,13.6-32.5,20.6c-28.6,18.3-57,36.9-85.4,55.4c-20.9,13.6-41.6,27.4-62.7,40.6c-38.2,23.9-74.2,50.5-110.1,77.7
		c-30.1,22.8-61.3,45.1-96.2,59.9c5.1-2.2,10.2-4.3,15.4-6.5c-29.3,12.3-60.4,21.3-91.9,25.7c5.7-0.8,11.4-1.5,17.1-2.3
		c-15.9,2.1-32.1,3.1-48,0.9c5.7,0.8,11.4,1.5,17.1,2.3c-6.9-1-13.7-2.6-20.2-5.2c5.1,2.2,10.2,4.3,15.4,6.5
		c-3.9-1.7-7.6-3.7-11-6.2c4.3,3.4,8.7,6.7,13,10.1c-2.6-2-5-4.3-7-6.9c3.4,4.3,6.7,8.7,10.1,13c-1.9-2.5-3.4-5.1-4.7-8
		c2.2,5.1,4.3,10.2,6.5,15.4c-1.5-3.6-2.4-7.3-3-11.2c0.8,5.7,1.5,11.4,2.3,17.1c-0.3-2.6-0.4-5.2-0.4-7.8
		c0.2-16.4-7.3-33.9-18.8-45.5c-11.2-11.2-29.5-19.6-45.5-18.8c-16.6,0.7-33.9,6.2-45.5,18.8C14.2,689.8,7.2,705.2,7,722.7L7,722.7z
		"/>
</g>
</svg>
