<?xml version="1.0" encoding="utf-8"?>
<!-- Generator: Adobe Illustrator 20.1.0, SVG Export Plug-In . SVG Version: 6.00 Build 0)  -->
<svg version="1.1" id="Layer_1" xmlns="http://www.w3.org/2000/svg" xmlns:xlink="http://www.w3.org/1999/xlink" x="0px" y="0px"
	 viewBox="0 0 816.2 874.3" style="enable-background:new 0 0 816.2 874.3;" xml:space="preserve">
<style type="text/css">
	.st0{fill:#FFFFFF;}
	.st1{fill:none;stroke:#FFFFFF;stroke-width:0.9;stroke-linecap:round;stroke-linejoin:round;}
	.st2{fill:none;stroke:#FFFFFF;stroke-width:20;stroke-miterlimit:10;}
</style>
<g>
	<g>
		<g>
			<path class="st1" d="M165.5,149.7c6.6,10.6,140.2-101.8,146.6-91.6c0.2,0.4-143.6,85-140,90.9c5.1,8.1,142.9-90.2,143.3-89.5
				c5.4,8.7-149.5,73.1-139.2,89.6c10.6,17,140.6-90.4,141.7-88.6c10.8,17.3-142.8,80.4-137.6,88.7c4.8,7.7,139.1-89.5,140.3-87.6
				c8.5,13.6-139.5,83.6-136.6,88.3c0,0,129.2-103.6,139.5-87.2c5.3,8.5-139.4,83.8-137,87.7C196.7,166.7,315.9,48,325.6,63.6
				c10,16-143.4,75.9-136,87.6c4.8,7.7,138.4-86.8,138.5-86.6c7.8,12.4-135.9,87.2-135.9,87.2c10.9,17.4,134.8-91.4,138.1-86.3
				c5.5,8.8-135.1,86-134.4,87.2c4.1,6.5,131.6-95.4,137.5-85.9c4.7,7.6-142,75.4-135,86.6c1.6,2.5,137.2-85.7,137.2-85.7
				c9.9,15.9-133.3,86.8-133.3,86.8C212,170,331.7,57.5,339,69.1c1.7,2.7-135.8,81.9-132.9,86.5c3.1,4.9,135-87,136.2-85.1
				c4.5,7.1-133.2,86.1-133.2,86.1c4.3,6.9,135.2-86.1,135.9-84.9c1.9,3-144.7,68.1-133.7,85.6c11,17.7,135.7-84.8,135.7-84.8
				c3.3,5.3-136.3,80.1-132.9,85.7l135.4-84.6c0,0-133.2,83.2-131.6,85.9c2,3.2,133.8-86.4,135-84.4c7.4,11.8-139.8,74.1-132.8,85.1
				c10.1,16.1,127.5-96,134.8-84.3c0,0-138.3,74.2-131.3,85.5c0,0,134-85,134.5-84.1c0,0.1-136.5,76.5-131,85.3
				c2.4,3.9,131-89,134.3-83.9c7.4,11.9-132,84.7-132,84.7S359,72.4,363.5,79.6c0,0-134.3,79.1-130.6,85
				c6.1,9.8,131.1-88,133.8-83.6c1.9,3-131.1,83.1-129.9,85c10.5,16.9,131.5-86.6,133.5-83.4c6.5,10.4-135.6,76.1-130.3,84.6
				c0,0,122.7-100.1,133.2-83.3c0,0-131,82.7-129.9,84.5c0,0,124.8-96.1,133-83.1c9.7,15.5-139.3,69.5-130.2,84.1
				c9.8,15.6,129.5-88.2,132.8-83c0,0-133.7,78.6-130.5,83.8c0,0,132.3-83.4,132.6-82.9c3.3,5.3-138.3,69.6-129.2,84.1
				c10.2,16.3,130.1-86.2,132.3-82.7c6,9.5-134.5,76.4-130.1,83.5c1.6,2.5,129.5-86.9,132.2-82.6c8,12.8-129.7,81.9-128.4,84
				c8.9,14.3,127.4-89.5,131.8-82.4c4.3,6.8-130.4,80.9-128.7,83.6c0,0,125.1-92.6,131.6-82.2c1.7,2.7-127.8,83.7-127.8,83.7
				c1.9,3,131.3-82.1,131.3-82.1c9.2,14.8-131,78.5-128,83.4c3.5,5.6,121.3-97.6,131.1-81.9c10.5,16.7-139.5,66-129,82.7
				c9.8,15.6,128.2-86.2,130.9-81.8c0,0-127.8,82.6-127.4,83.2c4.9,7.9,121.7-96.1,130.7-81.7c7.6,12.2-133.6,73.9-128,82.7
				c8,12.8,127.9-85.6,130.5-81.5c0.9,1.5-132,76-128,82.5c0,0,128.5-84.2,130.2-81.4c8.9,14.2-134.1,72.7-128,82.3
				c2.6,4.2,130.1-81.3,130.1-81.3c7.6,12.1-130.3,78.5-128,82.1c2.4,3.9,129.9-81.2,129.9-81.2c7,11.2-129.1,79-127,82.4
				c0.2,0.3,129.7-81.1,129.7-81.1c6,9.6-127.5,82-127.5,82c7,11.1,129.6-81,129.6-81c7,11.3-134.5,69.7-126.7,82.2
				c7,11.3,119.9-95.9,129.4-80.8c0,0-133.3,71.9-127.1,81.8c6.1,9.7,129.2-80.8,129.2-80.8c9.8,15.7-132.5,72.4-126.5,81.9
				l129.1-80.7c6.9,11-133.4,70.2-126.1,81.9C306.4,202,418.9,95.3,428,110c0,0-131.2,72.9-125.5,82c7.3,11.7,127-83,128.6-80.4
				c5.7,9-133.8,68.2-125.3,81.8c6,9.6,128.4-80.2,128.4-80.2c5.2,8.4-135.3,66.9-126.5,81.1c3.5,5.6,123.2-88.3,128.3-80.2
				c0,0-129.1,75.1-125,81.6c0.6,1,127.2-81.4,128.1-80c1.1,1.7-125.8,81-125.8,81c3.9,6.3,126.6-82.1,127.9-79.9
				c9.6,15.3-133.2,68.1-124.9,81.3c5.4,8.6,127.8-79.8,127.8-79.8c8.3,13.3-124.8,81.2-124.8,81.2c5.9,9.4,120.5-90.8,127.5-79.7
				c2.9,4.6-130.2,73-125.4,80.6c7.8,12.4,126.2-81.4,127.3-79.6c3.7,5.9-125.2,79.7-124.5,80.8c5,8,125.5-81.9,127.1-79.4
				c2.1,3.3-131.6,68.8-124,80.9c6.2,9.9,124.4-83.4,126.9-79.3c0.9,1.4-131.4,69.6-124.7,80.3L456.1,125
				c0.7,1.1-130.8,68.9-123.4,80.8c0,0,117.1-94.1,126.5-79.1c1.2,1.9-133.3,64.8-123.4,80.6c1.2,1.8,126.3-78.9,126.3-78.9
				c7.3,11.7-131.9,67.8-124.3,79.9c3.3,5.2,125.5-79.8,126.1-78.8c7.4,11.8-123.8,78.7-122.7,80.5c5.6,8.9,125.7-78.8,125.8-78.6
				c5.9,9.5-122.9,80-122.9,80c9.1,14.5,125.6-78.5,125.6-78.5c5.2,8.4-123,79.7-123,79.7c7.3,11.7,122.4-83.1,125.4-78.3
				c2.3,3.7-125.7,74.2-122.1,80c3,4.8,117.8-89.9,125.1-78.2l-122.9,79.3c6.5,10.4,119.3-87.2,125-78.1c3.6,5.8-123.1,79-123.1,79
				c1.1,1.7,116.6-91.2,124.8-78l-122.6,79.1c8.9,14.2,124.6-77.9,124.6-77.9c8.4,13.4-127.2,71.3-122.3,79.1
				c0.6,1,115.7-91.8,124.4-77.7c7.2,11.5-123.9,75.7-121.8,79.1c5.4,8.7,124.2-77.6,124.2-77.6c8.8,14.1-126.9,70.2-121.3,79
				c9,14.4,120.3-83.1,123.9-77.4c4,6.3-124.7,74.1-121.9,78.5L489.9,145c0,0-128.5,67.6-121.7,78.4c7.5,12,113.8-92.9,123.6-77.2
				c1.7,2.7-131.3,62.5-121.4,78.4c2.3,3.7,123.4-77.1,123.4-77.1c6.5,10.5-124.9,72.8-121.5,78.1c1.7,2.8,119.1-83.8,123.3-77
				c0,0-125.6,70.4-120.5,78.5c0,0,121.7-79,123-76.9c0,0-126,70.2-121.3,77.8c1.2,1.9,118.5-83.8,122.9-76.8
				c5.3,8.6-119.9,78.1-119.7,78.5c7.9,12.6,117.4-84.9,122.6-76.6c0,0-121.9,74.3-119.3,78.3c4.3,7,112.9-91.4,122.3-76.4
				c3.2,5.1-127.3,65.8-119.8,77.8c8.3,13.2,122.1-76.4,122.1-76.3c3,4.9-122.5,73.9-120.4,77.3c0.2,0.3,118.5-81.9,122-76.2
				c7.1,11.3-119.1,77.8-119.1,77.8c6.6,10.5,121.8-76.1,121.8-76.1c8.7,13.9-124.7,68.4-118.9,77.7c0.9,1.4,121.6-76,121.6-76
				c4.1,6.6-120.4,75.6-119.4,77.2c3.3,5.3,121.4-75.9,121.4-75.9c9.5,15.2-118.5,77.5-118.5,77.5c0.1,0.2,121.2-75.7,121.2-75.7
				c8.6,13.8-126.5,65.2-119.3,76.8c2.2,3.6,121.1-75.6,121.1-75.6c7.7,12.4-124,68.3-118.5,77.1l120.9-75.5
				c0,0-120.9,73.2-118.7,76.8c7.1,11.3,111.2-90.7,120.8-75.5c5.7,9.1-118.1,77-118.1,77s119-78,120.6-75.4
				c0,0-119.5,75.4-118.8,76.4c3.5,5.6,116.1-82.4,120.5-75.3c3.6,5.7-126,64.8-118.8,76.3c0,0,110.7-90.9,120.5-75.3
				c6.6,10.5-117.6,76.9-117.6,76.9c7.5,12,113.6-86,120.3-75.2c8.7,14-126.9,63-118.6,76.2c7.6,12.2,120.2-75.1,120.2-75.1
				c7,11.1-123.6,67.6-118.2,76.4c9.6,15.3,113.8-85.2,120.1-75.1c0,0-121.8,69.7-117.4,76.7l120-75c0,0-122.6,68.7-117.8,76.3
				c0,0,115.2-82.5,119.9-74.9c0,0-123.1,67.6-117.6,76.4c2.4,3.8,116.5-80.3,119.9-74.9c5.2,8.3-118.1,76-118.1,76
				c1.8,2.8,112.1-87.3,119.9-74.9c1.9,3.1-118.1,74.9-117,76.7c0,0,117.5-78.6,119.8-74.9c5.4,8.7-119.4,73.1-117.4,76.4
				c0,0,114.9-82.7,119.8-74.9c8.5,13.5-123.6,66.1-117.1,76.6c0,0,114.1-83.9,119.8-74.9c6.2,10-118,76-118,76
				s113.1-85.5,119.8-74.8c1.8,2.9-122.5,67.7-117,76.6c2.8,4.5,119.7-74.8,119.7-74.8c1.9,3.1-121.6,70-117.8,76.1
				c5.2,8.3,119.7-74.8,119.7-74.8S436,255.3,443.6,267.4c4.8,7.6,116.9-79.6,119.8-74.9c4.8,7.7-120,73-118.2,75.9
				c0.9,1.4,111-89.2,119.9-74.9l-116.9,76.9c6.5,10.4,120-75,120-75c6.3,10.1-121.9,69.3-117.2,76.7c0,0,119.8-75.4,120-75
				c0.5,0.8-118.6,75.6-118.3,76.2c4.5,7.1,116.1-81.4,120.1-75c0,0-124.4,66.3-118.1,76.4c1.2,2,120.2-75.1,120.2-75.1
				c1,1.7-122.4,68.7-117.3,77c8.1,13,111.1-89.8,120.3-75.2c7.3,11.6-125.2,65.6-118.4,76.4C467,290,578.1,200,579.8,202.6
				c9.3,14.9-117.6,77-117.6,77s118.5-78.7,120.6-75.3l-118,77c0,0,114.4-85.5,120.7-75.4c8.1,12.9-118.1,77.1-118.1,77.1
				s116.5-82.6,120.9-75.5c1.3,2.1-122.2,70.7-118,77.4c0.7,1.1,118.9-79.2,121.1-75.7c2.5,4-120.2,74.3-118.1,77.7
				c1.4,2.2,113.7-87.9,121.3-75.8c8.3,13.3-125,67.4-118.7,77.5c0,0,119.1-79.8,121.5-75.9c0.6,0.9-122.7,71.8-119.2,77.4
				c0,0,113.5-89.2,121.7-76C606.6,225,477,286.5,480,291.4c8.1,13,118-82.3,121.8-76.1c4.7,7.6-119.9,77.4-119.9,77.4
				c8.8,14.1,118.8-81.3,122-76.2c3.9,6.2-120.1,77.4-120,77.5c6,9.7,122.1-76.3,122.1-76.3S486,295.2,486,295.3
				c7.1,11.3,112.7-91.8,122.3-76.4c7.6,12.2-121.4,75.3-119.6,78.2c0.1,0.2,120.5-79.8,122.5-76.6c1.5,2.4-123.3,73.3-120.5,77.9
				c0,0,115.8-87.7,122.7-76.7c3.5,5.7-124.3,71.7-120.2,78.3c3.3,5.3,113.4-92,122.9-76.8c9.2,14.7-121.2,77.8-121.2,77.8
				s115.1-89.4,123-76.8c6.6,10.6-129.5,64.5-121.1,78l123.1-76.9c2.5,4-124.9,71.4-120.4,78.6c0,0,116.6-87.6,123.2-77
				c1.5,2.4-129.7,64.1-120.7,78.6c0,0,114.9-90.6,123.4-77.1c0,0-129.8,64.2-120.8,78.7c0,0,117-87.6,123.5-77.2
				c9.4,15-126.4,70.3-121.2,78.6c8.9,14.3,123.6-77.3,123.6-77.3c10,15.9-128.6,67.3-121.6,78.5c3.8,6,123.7-77.3,123.7-77.3
				c3.4,5.4-121.4,78.1-120.8,79.1c6.9,11,115.8-90.3,123.8-77.4c5.1,8.2-122.3,76.6-120.6,79.3c0.2,0.3,119.1-85.2,123.9-77.4
				c0,0-121.7,78.2-121.1,79c7.8,12.6,123.1-78.9,124-77.5C651.5,253,519.2,314,521,316.8c5.3,8.4,123.1-79,124-77.5
				c5.7,9.1-129.2,67-121.8,78.8c2.6,4.2,114.4-92.9,124-77.5c0,0-128.6,66.9-120.8,79.4c4.9,7.9,120.2-83.7,124.1-77.5
				c5.2,8.3-126.1,71-120.9,79.3c6.2,10,116.2-90.1,124-77.5c4.7,7.5-121.9,78.1-121.3,79c7.7,12.4,120.6-82.9,124-77.5
				c3,4.7-123.6,75.8-121.8,78.7c1.3,2,116.5-89.4,124-77.5c3,4.8-129.8,65.5-121.5,78.8c9.8,15.7,123.4-78.2,123.9-77.4L539.1,327
				c6.4,10.3,121.6-80.9,123.8-77.4c1.4,2.2-130,65-121.5,78.7c0,0,117.5-87.4,123.7-77.3c6.1,9.7-120.6,79.1-120.6,79.1
				s116.2-89.2,123.6-77.3c0,0-130.3,63.6-120.7,78.9c2,3.2,122.8-78.3,123.5-77.2c7.9,12.6-121,78.5-121,78.5
				c8.2,13.2,118.2-85.4,123.4-77.1c5.6,9-129.1,65.1-120.7,78.6c2.2,3.5,117.3-86.6,123.3-77c9.9,15.8-121.8,77.3-121.3,78.1
				c3.3,5.2,118.6-84.3,123.1-76.9c3.3,5.2-123.8,73.9-121.3,77.9c0,0,122.8-77.2,123-76.9c7.6,12.1-123.4,73.1-120.1,78.5
				c4.5,7.3,122.2-77.7,122.8-76.7c0.8,1.3-121.6,76.6-120.9,77.8L684,262.5c2.7,4.4-121.7,75.2-119.9,78.2
				c2.8,4.5,122.5-76.5,122.5-76.5c1.2,1.9-124,72-120.5,77.6c7.3,11.7,122.4-76.5,122.4-76.5c4,6.5-122.6,73.8-120.2,77.6
				c6.5,10.3,119.9-80.1,122.2-76.4c0,0-128.9,62.7-119.4,77.9c7.9,12.7,120.9-77.9,122-76.2c6,9.7-125.7,68.1-119.9,77.4
				c1.9,3.1,112.5-90.9,121.8-76.1c7.5,12-121,74.3-118.9,77.7c0,0,116.4-84.1,121.5-75.9c9.8,15.6-127.2,65-119.8,76.9
				c7.1,11.3,121.3-75.8,121.3-75.8c6.1,9.8-119.7,75.6-118.6,77.3c8.6,13.8,116.2-83.5,121.1-75.7c3.5,5.7-125.5,65.7-118.3,77.3
				c0,0,118.1-79.9,120.8-75.5c3.9,6.2-118.9,76.4-118.8,76.7c0,0,118.4-79,120.7-75.4c0,0-122.6,69.6-118,76.9
				c9.2,14.8,112.2-88.4,120.4-75.2c1.3,2.1-122.2,69.9-118.1,76.6c9.5,15.3,120.2-75.1,120.2-75.1c5.1,8.2-117.6,76.5-117.6,76.5
				c9.1,14.6,113.2-85.5,119.9-74.9c1.6,2.6-122.1,69.6-118.2,75.9c0,0,111.2-88.3,119.7-74.8c0,0-119.3,72.9-117.2,76.3
				c2.8,4.5,110.3-89.3,119.5-74.6c6.1,9.8-117.7,74.6-116.6,76.3c0.4,0.6,116.5-78.7,119.2-74.5c7.6,12.1-119.9,71-116.8,75.9
				c5.9,9.5,116-78.9,118.9-74.3c0,0-124.5,62.7-116.2,75.9c1,1.5,113.3-82.7,118.6-74.1c8.7,13.9-121.3,68-116.8,75.2
				c1.8,3,118.4-74,118.4-74c2.7,4.2-116.5,75.1-116.5,75.1c1.8,2.9,114.7-79.4,118.2-73.9c0,0-118.1,71.1-115.3,75.6
				c4.1,6.6,113.6-80.4,117.9-73.6c3.7,6-121.1,66.4-115.8,75c2.5,3.9,108.3-88.4,117.6-73.5c0,0-119.7,67.5-114.9,75.2
				c6,9.7,117.1-73.6,117.3-73.3c1.8,2.9-114.4,75.2-114.4,75.2c3.9,6.2,112.6-80.1,117-73.1c0.5,0.8-116,72.7-115,74.3
				c5.3,8.5,115.8-74.4,116.7-72.9c6.8,10.9-119.6,66.2-114.6,74.3c0,0,109.5-83.8,116.4-72.7c7.7,12.3-115.2,72-113.7,74.5
				c8,12.8,114.4-75,116-72.5c4.1,6.6-113.8,74-113.8,74c7.3,11.7,111.9-78.5,115.7-72.3c0.2,0.3-121.1,61.5-113.2,74.1
				c4.3,6.8,112.2-77.2,115.4-72.1c8.4,13.4-119.5,63-112.6,74c1.9,3.1,109.5-80.7,115-71.9c8.3,13.3-122,59.1-113.3,73.1
				c6,9.6,108.3-81.9,114.7-71.7c5.8,9.2-112.9,72.1-112.1,73.5c3.7,5.9,105.6-85.2,114.3-71.4c5.7,9.2-112.7,72.5-112.7,72.5
				c6.3,10.1,109.4-78.5,114-71.2c4.2,6.8-118.4,62.6-112.4,72.4c1.8,2.9,112.8-72.5,113.7-71c1.3,2.1-111.1,73-111.1,73
				c0.6,0.9,113.2-70.7,113.2-70.7c7.5,12-119.7,58.5-111.1,72.3c0,0,107.5-78.9,112.8-70.5c7.9,12.7-110.3,72.3-110.3,72.3
				c6.7,10.7,107-78.6,112.3-70.2c8,12.8-116.2,61.7-109.6,72.3c0,0,108-75.8,111.7-69.8c1.5,2.4-114.3,64.2-109.6,71.7
				c5,8,111.4-69.6,111.4-69.6c1.9,3-110,70.5-109.5,71.2c0,0,110.9-69.6,111.1-69.4c6.4,10.3-115.6,60.9-109.4,70.8
				c6.7,10.8,106.1-76.6,110.8-69.2c1.4,2.3-117.1,57.6-108.6,71.2c2.7,4.4,109.9-69.8,110.4-69c3.2,5.2-116.7,57.5-108.3,71
				c5.5,8.8,107.3-73,110-68.7c0.8,1.3-115.3,59.2-108.5,70.2c8.1,13,107.1-72.8,109.8-68.6c3.2,5.1-107.7,70.6-107.7,70.6
				c8.1,13,102.8-79.1,109.4-68.4c5.8,9.4-107.8,70.1-107.8,70.1l109.2-68.2l-107.7,69.7c1.2,1.9,101.2-80.5,108.9-68.1
				c0.8,1.2-106.8,70.3-106.8,70.3c0.3,0.4,100.7-80.6,108.6-67.9c5.4,8.6-107,69.9-107,69.9c1.7,2.7,100-81.4,108.5-67.8
				c3.4,5.5-107,70.2-107,70.2c7.5,12.1,101.1-79.8,108.6-67.8c1.8,2.9-108.3,68.2-107.3,69.8c1,1.7,106.3-71.5,108.6-67.9
				c2.8,4.4-107.3,70.1-107.3,70.2c2.7,4.3,107.6-69.7,108.7-67.9c4.4,7-112,62.9-107.7,69.7c4.4,7.1,106.6-71.4,108.7-68
				c0,0-111.7,64.2-107.6,70.7c7,11.3,108.7-68.9,109.1-68.2c8.6,13.8-117.4,55.8-108.6,70c0,0,101.2-81.6,109.5-68.4
				c16.2,26-240.6,153.1-240.6,153.1c2.5,4,241.7-151,241.7-151c7.8,12.4-375.3,203.5-360,228c22.8,36.5,349.5-244.3,361.2-225.7
				c6.1,9.8-395,240.5-391.2,246.7c0,0,391.2-246.4,392-245c15.6,24.9-422.8,260.1-419.6,265.2c13.3,21.2,400-295.9,420.7-262.9
				c1.7,2.8-448.1,283.5-448.1,283.5S764.2,324.6,793,370.7c0,0-493.4,286.8-482.4,304.3c20.7,33.1,447.3-360,483.4-302.1"/>
			<path class="st1" d="M152.9,704.9c0.7,1.1,10.6-8.1,11.3-7c0.4,0.6-8.8,7.6-8.4,8.2c0.5,0.8,7.4-5.5,7.8-4.9
				c0.2,0.3-5.8,6.1-5.8,6.1s4.4-3.7,4.8-3"/>
			<path class="st1" d="M88.7,45.4c0.9,1.4,10.9-8.9,11.8-7.4c1.8,2.9-25.7,15.7-24.4,17.8l40.3-25.2c0.8,1.3-46.7,29.7-45.9,31
				c0.3,0.5,51.7-38.1,54.3-33.9c1.8,2.8-59.3,36.7-58.3,38.5c3.9,6.3,64.4-40.2,64.4-40.2c3.2,5.1-70.3,40.3-67.7,44.5
				c5.4,8.6,73.1-47.1,73.7-46.1c1.8,2.9-78.5,46.6-76.5,49.9c5.7,9.1,78.6-55.2,81.3-50.8c2.8,4.5-83.5,54.2-83.5,54.2
				s81.2-66.2,88.2-55.1c0,0-98.2,49.4-91.4,60.3l98-61.2c0,0-101.7,62.5-100.1,65c5,8,103.2-68.1,104.8-65.5
				c7.1,11.4-107.8,67-106.6,69c1.1,1.8,109.6-71.3,110.8-69.3c0,0-119.1,65.7-113.5,74.6c0,0,119.5-75.4,119.8-74.9
				c8.3,13.3-131,65.4-122,79.8c4.8,7.7,126.6-81.8,127.8-79.9c1.1,1.8-133.7,77.9-129.7,84.3c3,4.8,134.5-84,134.5-84
				c9.1,14.6-136.2,88.3-136.2,88.3c5.8,9.3,136.2-95.7,141-88.1c7.3,11.7-146.2,85.4-142.3,91.6c0,0,135.9-107.6,146.1-91.3
				c0,0-154.3,85.8-147.8,96.2c0.4,0.7,150.9-99,153-95.6c0,0-157.2,93.1-153.8,98.5c10.2,16.2,149.8-109.7,157.1-98.1
				C204.6,35.9,31.7,112.3,38.3,123C49.9,141.6,187.6,4.7,198.9,22.7c0,0-172.4,85.2-161.2,103.2c0,0,156.3-115.4,164.3-102.7
				c11,17.6-172.1,93.6-164.8,105.2c9.4,15,164.9-109.2,167.6-104.7c10.4,16.6-179.3,89.6-168.1,107.5
				c12.2,19.5,171.2-107,171.2-107C217,38.8,36.2,133.7,36.2,133.7l174.4-109c4.3,6.9-183.3,99.8-175.1,112.9
				c0,0,171-125.2,179.3-112C228.4,47.3,32.4,136.2,35.1,140.4c7.4,11.9,182.8-114.2,182.8-114.2C229,44.1,25.2,128.5,34.6,143.5
				C41.9,155.3,216.4,19.6,221,27c0.5,0.7-196.6,104.6-186.9,120.2C40.5,157.5,211.8,7.1,224.8,28C239.6,51.6,33.8,149.8,33.8,149.8
				C49.3,174.6,227.6,28.6,227.6,28.6c5,8.1-194.2,124-194.2,124L230.6,29.4C234.2,35.2,33,155.9,33,155.9
				C36.2,161,220.9,9.5,233.9,30.4c14,22.4-205.6,121.2-201.2,128.2c3.1,4.9,197.3-138,203.9-127.4L32.3,162.6L240.7,32.3
				c0,0-208.8,132.9-208.7,133.2c6,9.6,205.7-141.7,211.6-132.2C248.6,41.2,15.4,142,31.8,168.2C44.8,189,237.9,20.6,246.4,34.1
				c7.8,12.5-229.7,114.1-214.9,137.7C45,193.6,238.7,17.2,250.1,35.3c10.3,16.5-232,119.6-218.9,140.6C46.9,201,248.1,27,254,36.6
				c0,0-240.2,115.5-223.1,142.9c0,0,209.8-168.8,226.7-141.7c0,0-241.3,120.8-226.9,144C36,190.2,260,38.6,260,38.6
				C275.1,62.7,20.5,169.3,30.6,185.5C46.1,210.3,263.6,39.9,263.6,39.9C280.1,66.3,30.4,188.2,30.4,188.2
				c5.2,8.2,225.1-164.5,235.8-147.3c0,0-252.4,124.7-236,151.1C47.3,219.2,258.2,23.4,269.9,42.1c4.6,7.3-239.7,152.2-239.7,152.2
				C45.8,219.3,272.4,43,272.4,43c3.2,5.1-242.8,152.7-242.3,153.6c5.4,8.7,233-171.3,244.6-152.8C292.3,72.1,16,178,29.9,200.4
				C33,205.3,260.5,16.6,278.4,45.2C296.2,73.6,28.5,200.8,29.8,203C35.7,212.3,280.7,45.6,281,46.1C282.8,49,16.1,183.5,29.8,205.5
				C35.3,214.4,283.4,47,283.4,47c1.5,2.4-262.9,146.3-253.7,161C33,213.2,285.9,47.9,285.9,47.9c9.4,15-272.8,136.3-256.2,162.9
				C47.5,239.2,267.7,15.5,288.6,49c0.7,1.1-259,164.5-259,164.5C31.9,217.1,283.3,37.3,291.3,50C302.1,67.3,29.5,215.8,29.5,215.8
				c13.5,21.6,264-165,264-165c11.9,19-276,148.1-264.1,167.3C42.7,239.3,285.3,34.9,295.8,51.7C310.7,75.6,29.4,221.2,29.5,221.3
				C50.9,255.6,295.3,47.1,299,52.9C311.8,73.4,29.5,224.4,29.5,224.4C46.9,252.3,281.1,20.6,302,54.1c0,0-290.8,144.1-272.6,173.4
				C40.5,245.2,305.1,55.3,305.1,55.3C320.5,80,25.6,224.3,29.4,230.5c3.9,6.2,264-197.3,278.5-174c5.9,9.4-287.5,162.1-278.5,176.5
				C48.8,264,310.3,57.4,310.3,57.4c2.5,4-293.3,158.4-280.9,178.3c8.8,14.1,126.5-96.4,134.3-83.9c2.9,4.6-134.3,87.8-134.3,87.8
				c4.8,7.7,132.9-83,132.9-83c6.6,10.6-133.7,84.9-132.9,86.1c1.2,2,132.1-82.5,132.1-82.5c2.4,3.8-135.1,80-132.1,84.9
				c8,12.7,124.9-92.7,131.5-82.2c10.7,17.1-138.6,74.3-131.5,85.7c0,0,122.7-94.8,130.9-81.8c9.2,14.7-130.8,83.8-130.8,83.8
				c9.6,15.3,125.8-89.3,130.6-81.6c0.5,0.9-136.1,74.9-130.6,83.7c9.4,15,125.9-88.5,130.3-81.4c0,0-133.9,78-130.3,83.7
				c0,0,120.7-96.4,130.1-81.3c4.8,7.7-131.5,81.8-130.1,84.1c0,0,121.8-94.2,129.9-81.2c1,1.6-133.8,76.9-129.9,83.3
				c5.3,8.5,122.9-91.9,129.7-81c5.9,9.5-129.7,83.9-129.7,83.9c5.8,9.3,120.3-95.5,129.5-80.9c7.4,11.8-134.7,75.3-129.4,83.8
				c0,0,121.9-92.4,129.2-80.7c1.3,2.2-129.2,84-129.2,84c8.7,13.9,120-94.9,129-80.6c3.3,5.2-134.8,73.4-128.9,82.7
				c0,0,125.3-86.2,128.8-80.5c3.3,5.2-138.8,67.9-128.8,84c9.3,14.8,122.3-90.6,128.7-80.4c0,0-132.2,76.8-128.6,82.5
				c4.3,6.9,124.2-87.3,128.5-80.3c4.8,7.7-138,67.3-128.5,82.4c9.7,15.6,128.4-80.3,128.4-80.3c4.2,6.7-129.2,81.1-128.4,82.5
				c2.1,3.3,118-96.6,128.3-80.2c10.5,16.7-128.2,82.4-128.2,82.4c1.2,2,128.1-80.1,128.1-80.1S28.2,283.3,29.7,285.7
				c6.6,10.6,124.1-86.3,128-80c1.6,2.5-132.3,76.5-127.9,83.5c2.3,3.7,127.9-79.9,127.9-79.9c8.7,13.9-135.5,70.1-127.8,82.4
				c0,0,117.6-96.1,127.8-79.8c10,15.9-133.9,73.1-127.7,83.1c1.5,2.4,122.8-87.5,127.6-79.7c0,0-134.1,71.5-127.6,81.9
				c9.8,15.7,127.5-79.7,127.5-79.7c6.3,10.2-127.4,82.2-127.4,82.2C40.4,316.2,157.5,220,157.5,220c8,12.9-136.5,68.2-127.3,82.9
				c1.4,2.3,120.4-90.7,127.3-79.6c0.4,0.6-134.3,71.5-127.2,82.8c0,0,117.4-95.3,127.2-79.5c4.3,6.8-137.3,66.3-127.2,82.6
				c4,6.4,123.1-85.8,127.1-79.4L30.4,311.9c9.9,15.8,127-79.4,127-79.4c9.8,15.7-128.5,79.6-126.9,82.2
				c7.9,12.6,121.3-88.3,126.9-79.3c5,8-136.5,66.6-126.8,82.1c2.3,3.7,124.2-83.5,126.8-79.3c0,0-132,73.8-126.7,82.3
				c6.8,10.9,122.7-85.7,126.7-79.2c0.8,1.2-136.9,65.2-126.6,81.6c3.1,4.9,124.9-81.9,126.7-79.1c5.5,8.9-136.7,66.2-126.5,82.5
				c9.2,14.7,121.9-86.5,126.5-79.1c7.7,12.3-126.4,81.7-126.4,81.7c3.6,5.7,126.5-79,126.5-79c6.3,10.2-126.5,82.4-126.3,82.8
				c3,4.9,126.3-79,126.3-79c9.3,14.9-136.2,65.9-126.2,81.8c4.8,7.7,126-79.4,126.3-78.9c5,8-126.8,81.6-126.1,82.6
				C36,346.4,150,248,157.6,260.3c0,0-128.8,77.9-126,82.4c6.1,9.8,126.1-78.8,126.1-78.8c1.1,1.8-132,71.7-126,81.4
				c9.4,15,123.8-82.2,126-78.7C168,283,29.1,343,31.8,347.3c9.2,14.7,125.6-79.1,125.9-78.7c3.3,5.4-134.2,68.6-125.7,82
				c0,0,116.9-92.8,125.8-78.6c6,9.6-132.2,70.7-125.7,81.2c0,0,119.2-89,125.7-78.5c4.6,7.3-135.2,65.4-125.6,80.8
				c0,0,118.2-90.3,125.6-78.5c5.6,8.9-132,70.3-125.5,80.7C42.4,374,150.1,267,157.9,279.4c8.8,14.1-130.7,72.9-125.4,81.3
				c2.3,3.7,125.4-78.4,125.4-78.4L32.6,363.5l125.3-78.3c0.7,1.2-125.2,81.3-125.2,81.3c9.5,15.1,124.6-79.3,125.3-78.3
				c9,14.5-130.4,73-125.1,81.5c2.4,3.8,125.2-78.2,125.2-78.2S30.9,368.8,33,372.2c5.7,9.1,116.1-92.6,125.1-78.2
				c0,0-125.7,80.4-124.9,81.7c9.5,15.2,125-78.1,125-78.1S28.4,369.7,33.4,377.7c0,0,120.8-84.7,125-78.1
				c9.7,15.6-125.9,79.8-124.8,81.7c0,0,121.1-84,124.8-78c2.3,3.7-124.7,80.5-124.7,80.5s115.8-92.4,124.8-78
				c0,0-130.8,70.5-124.6,80.4c0.5,0.8,116-91.9,124.7-77.9c6.1,9.7-134.3,65.5-124.5,81.2c2.2,3.5,114.5-94,124.6-77.9
				c2.5,3.9-128.6,73.7-124.5,80.3c5.4,8.7,124.3-78.2,124.5-77.8c2,3.3-128,75.2-124.3,81.1c0,0,124.1-78.2,124.4-77.8
				c4,6.4-131.1,69.1-124.3,80c0,0,123.6-79,124.4-77.7c0,0-132.7,67-124.2,80.7c3.6,5.8,122.9-79.9,124.3-77.7
				c1.1,1.8-133.6,65.3-124.1,80.4c9.9,15.8,124.2-77.6,124.2-77.6c9.3,14.8-133.3,65.8-124,80.6c8.7,13.9,124-77.8,124.1-77.6
				c9.3,14.8-124.3,79.5-124,80.1c7.5,12,116.4-89.7,124.1-77.5c4.3,7-125.8,76.9-123.9,80c1.6,2.5,120.6-82.9,124-77.5
				c8.8,14-129.7,71.1-123.8,80.7c8,12.8,123.9-77.4,123.9-77.4c4.6,7.4-131,68.3-123.7,80c0.9,1.4,119.6-84.2,123.8-77.4
				c6.7,10.8-130.1,70.4-123.6,80.8c9.8,15.7,114.6-91.8,123.7-77.3c1.1,1.7-130.2,68.6-123.6,79.2c0,0,119.9-83.2,123.6-77.3
				c1.1,1.8-124.2,78.9-123.4,80.2c6.3,10,120.3-82.3,123.5-77.2c5.2,8.4-127.4,73.2-123.3,79.9c2.8,4.4,114.1-92,123.4-77.1
				c7.4,11.9-123.2,79.8-123.2,79.8c2.7,4.3,123.3-77,123.3-77c1.9,3-130.5,68-123.1,79.9l123.2-77C168.5,369.5,34,431.5,37.4,437
				c9.3,15,118.2-84.7,123.1-76.9c7,11.2-129.6,68.6-122.9,79.3l123-76.9c0,0.1-122.8,79.9-122.8,79.9c1.8,2.9,118.4-84.1,123-76.8
				c2.8,4.4-132.4,64.3-122.8,79.7c2.6,4.2,119.2-82.8,122.9-76.8c0,0-127.6,71.3-122.8,79c1.1,1.8,122.9-76.8,122.9-76.8
				c2.7,4.2-126.9,72.4-122.7,79.2C42,455.7,153,360,161.2,373.1c2.6,4.1-129.8,67.3-122.7,78.8c2.5,4,118.6-83.5,122.8-76.7
				c0,0-130.8,66.4-122.6,79.6c1.6,2.5,117.6-84.9,122.7-76.7c10,16-130.8,65.9-122.6,78.9c9,14.4,119.7-81.5,122.7-76.7
				c5.7,9.2-132.4,64.6-122.5,80.4c3.4,5.4,119.5-81.8,122.7-76.7c5.4,8.7-122.6,78.8-122.6,78.8s119.3-82.2,122.7-76.7
				c0.6,0.9-130.6,67.5-122.6,80.3c7.8,12.5,122.1-77.7,122.8-76.7c0,0-131,66-122.6,79.4c2,3.2,122.1-77.7,122.8-76.7
				c7.8,12.5-128.1,70.1-122.7,78.8c0.5,0.9,121.4-79,122.8-76.7c5.8,9.4-132.2,63.5-122.7,78.8c9.5,15.2,122.6-77.2,122.8-76.8
				c5.2,8.3-122.7,78.8-122.7,78.8l122.9-76.8c0,0-124.2,78.2-122.8,80.4c8.3,13.2,118-85,123.1-76.9c0,0-126.1,73.9-123,78.9
				c4.8,7.8,114.8-90.4,123.2-77c5.6,9-123.1,79.8-123.1,79.8l123.3-77.1c5.6,9-126.7,73.8-123.3,79.2
				c2.4,3.8,119.1-84.1,123.4-77.1c0,0-132.4,66.2-123.4,80.5C46,499,158.6,404,163.6,412c2.1,3.3-128.9,72.5-123.6,81
				c10,15.9,114.4-92.6,123.8-77.4c0,0-127.1,74.9-123.9,79.9c2.6,4.2,122.3-80.3,124.1-77.5c5.3,8.5-129.4,72.2-124.1,80.6
				c2,3.2,115-92.6,124.3-77.7c0,0-124.9,80.2-124.4,81.1c10.1,16.2,120.5-84.4,124.6-77.9c4.3,6.8-125.1,80.1-124.7,80.8
				c4.2,6.8,123.2-80.7,124.8-78c7.3,11.7-134.5,64.7-124.9,80c3,4.7,123.2-81,125-78.1c10,16-125.1,81.5-125.1,81.5
				c2.7,4.3,124.2-80.3,125.4-78.4c3.4,5.5-134.3,68-125.6,82c5.6,9,124.4-80.9,125.8-78.6c8.4,13.4-127.8,79.7-126,82.6
				c4,6.5,124.2-82.3,126.3-78.9c4.6,7.3-127.6,79.2-126.4,81.1c0,0,118.4-92.1,126.6-79.1c0,0-129.9,76.5-126.7,81.8
				c0.7,1.1,126.9-79.3,126.9-79.3c1.5,2.4-134.6,70.4-127,82.4c5.4,8.7,117.6-95,127.3-79.5c0,0-131.7,75.1-127.4,82
				c2.1,3.4,127.6-79.7,127.6-79.7c9.4,15.1-135.8,70.1-127.8,83c1.8,2.8,128.1-80,128.1-80S31.5,523.1,38.4,534.1
				c2,3.2,123.4-88,128.3-80.2c0.2,0.3-130.3,79.6-128.5,82.5c4.2,6.7,128.6-80.4,128.6-80.4c6.5,10.3-132.2,78.1-128.8,83.5
				c4.4,7,126.6-84.4,129-80.6c2.2,3.5-137.5,70.4-129.2,83.7c3,4.9,122.9-91.2,129.4-80.8c8.2,13.1-134.6,75.5-129.6,83.7
				c2.7,4.3,123.5-91,129.7-81.1c5.9,9.5-139.4,69.7-130,84.8c7.4,11.8,130.1-81.3,130.1-81.3c1.4,2.2-132.2,80.5-130.3,83.6
				c9.7,15.5,124.8-90.4,130.4-81.5c0,0-132.2,82.7-130.6,85.3c2.2,3.5,126.2-89,130.7-81.7c7.3,11.7-131.8,84.4-131,85.7
				c0,0,125.2-91.3,131.1-81.9c0,0-135.4,79.2-131.4,85.6c7,11.1,121.1-98.8,131.5-82.2c9.9,15.9-131.7,85.8-131.7,85.8
				c7.4,11.8,127.6-89.1,131.8-82.3c8.1,13-142.9,68.5-132,85.9c5.2,8.3,128.6-88,132-82.5c0,0-139.6,73.8-132.2,85.6
				c4,6.3,132.2-82.6,132.2-82.6c4.3,6.8-143,68.7-132.4,85.7c9.1,14.6,129.7-87.1,132.4-82.7L35.5,578.8c0,0,129.2-88.1,132.5-82.8
				c8.7,14-140.2,73.8-132.7,85.8c2.6,4.1,132.3-83.6,132.7-82.9c6.2,9.9-134.9,83.5-132.9,86.6c1.1,1.7,125.4-94.9,132.9-83
				c4.1,6.5-144,69.6-133.1,87c8.4,13.5,122.8-99.4,133-83.1c1.2,1.9-137.5,80-133.2,87l133.1-83.1c10.3,16.5-144,68-133.2,85.3
				c0.2,0.4,132.7-83.7,133.1-83.2c0.8,1.3-140.8,75-133.3,87.1c5.8,9.3,133.1-83.2,133.1-83.2c4.5,7.1-139,76.2-133.2,85.4
				c2.1,3.4,122.7-99.9,133.2-83.2c0,0-143,70.9-133.3,86.3c10.7,17.1,126.7-93.5,133.1-83.2c1.5,2.3-136.2,82.4-133.2,87.1
				l133-83.1c0,0-141.1,73.4-133.1,86.2c8.4,13.5,123.5-98.1,132.9-83.1c0,0-143.3,69.1-133,85.6c4.4,7,132.9-83,132.9-83
				c9.4,15-133.5,84.9-132.9,85.9c6.7,10.8,130.4-86.7,132.8-83c10.8,17.2-134.6,83.9-132.8,86.7c9.7,15.6,122.2-99.5,132.6-82.9
				c4.3,6.8-139.9,75-132.6,86.6c0,0,132.3-82.8,132.4-82.7c3.3,5.2-142.8,68.6-132.4,85.3c8.5,13.7,129.3-87.2,132.2-82.6
				c9.8,15.7-134.7,80.9-132.2,84.8c2.6,4.1,127.1-90.5,132-82.5c5.6,9-133.3,84.2-132,86.2c6.5,10.4,125.2-92.8,131.7-82.3
				c0,0-133,83.5-131.7,85.5c7.9,12.6,128.6-86.8,131.5-82.2c3.9,6.2-134.5,80.8-131.5,85.8c3.3,5.2,131.2-82,131.2-82
				S28.6,634.8,34.1,643.6c3.3,5.3,128.4-85.7,130.9-81.8c6.7,10.7-130.8,84.6-130.8,84.6c7.4,11.8,129.5-83.3,130.6-81.6
				c0,0-131.6,81.9-130.5,83.7c0,0,123.8-91.9,130.4-81.5c3.7,5.9-132.7,79.6-130.3,83.6c4.5,7.2,130.1-81.3,130.1-81.3
				S32.3,650,34.5,653.6c3.9,6.2,120.8-95.5,129.8-81.1c10.4,16.7-130.3,83.2-129.7,84.1c7.5,12,121.6-93.6,129.5-80.9L34.8,659
				c1.9,3,126.4-85.3,129.3-80.8c0.5,0.9-129.2,84.1-129,84.3c8.3,13.3,120-94.6,128.8-80.5c0,0-136.7,71-128.5,84.1
				c10,16,119.9-93.6,128.3-80.2c4.6,7.4-130.5,79.7-128,83.6c2.9,4.6,125.9-83.1,127.9-79.9c6.2,10-130.8,77.1-127.7,82.1
				c5.1,8.2,126.6-81.4,127.6-79.7c0,0-129.8,79.1-127.4,82.9c1.8,2.8,120-91,127.2-79.5C172.4,610.2,34.7,676,36,678.1
				c8.3,13.3,127-79.4,127-79.4c3.1,4.9-129.9,77.5-127,82.2l126.8-79.3l-126.5,82c7.9,12.7,126.4-79,126.4-79
				c8.3,13.3-126.1,81.3-126.1,81.3l126.1-78.8c3.4,5.4-135.6,65-125.6,81c0.2,0.3,117.6-91.1,125.5-78.4c0,0-127.2,77-125,80.6
				c3.4,5.4,120.4-85.5,125-78.1c1.6,2.5-128.9,73.2-124,81c0,0,122.7-79.4,123.9-77.4c7.6,12.1-123,80.1-123,80.1
				c7.2,11.5,122.9-76.8,122.9-76.8c9.2,14.7-121.7,79.6-121.7,79.6c1.1,1.7,114.4-87.5,121.6-76c7.1,11.4-121,77.3-120.8,77.8
				c0,0,116.7-81.9,120.7-75.5c2.9,4.6-125.8,68.1-120,77.4c0.7,1.1,117.8-78.4,120-75c4.3,6.8-122.3,72.2-119,77.4
				c3.1,5,109.7-89.3,119-74.4L44.8,708c5.6,9,116.6-75.1,117.6-73.5c2.2,3.5-125.6,63.3-117.3,76.6c1.6,2.5,117.1-73.7,117.3-73.3
				c0,0-119.2,76.4-119.1,76.6c0.4,0.6,110.4-88.3,119.1-74.4L41.1,719.1c9.6,15.4,121.3-75.8,121.3-75.8
				c3.2,5.1-122.7,79.5-122.7,79.5c1.5,2.4,122.8-76.7,122.8-76.7s-126.4,76-123.8,80.1c7,11.3,120.1-83.5,123.9-77.4
				c0,0-131.1,72.1-125,81.7l125.1-78.2L37,734.3c7.4,11.8,122-84.7,125.8-78.6c8.4,13.4-129.7,75.5-126.2,81.2
				c0,0,121.9-85.9,126.3-78.9c6.4,10.3-135.3,67.4-126.4,81.6c0.5,0.8,119-91.2,126.6-79.1c8.4,13.4-130.7,75.3-126.7,81.6
				l126.9-79.3c10.1,16.2-127.1,81.3-126.9,81.6c2.4,3.8,121.4-88.5,127.1-79.4c3.5,5.6-133.5,71.3-127.1,81.7
				c9.4,15.1,127.2-79.5,127.2-79.5c6.2,10-135,70-127.2,82.6c1.2,1.9,127.4-79.6,127.4-79.6c2.6,4.1-127.8,82.2-127.1,83.2
				c9.7,15.6,117.4-95.5,127.4-79.6c3.2,5.1-136.2,67.2-127.2,81.6c1.2,1.9,120.9-89.9,127.4-79.6C170.7,686.3,37,758,37,758
				s122.4-87.5,127.3-79.6c3.5,5.6-134.3,70.5-127,82.2c10.1,16.2,123.2-85.8,127.2-79.5c1.3,2.1-135.7,67.9-126.8,82.1
				c7.8,12.5,119.2-91.6,126.9-79.3c0,0-131.9,73.4-126.3,82.4c1.7,2.6,117-93.9,126.4-79c8.1,12.9-134.5,68.1-125.7,82
				c6.5,10.4,119.6-88.3,125.7-78.5c7.9,12.7-126.1,79.7-124.8,81.7c6.9,11,124.3-78.5,124.6-77.9c7,11.3-123.7,81.1-123.7,81.1
				c0.8,1.3,104.9-80.8,111.7-69.8c7.4,11.9-119.5,58.2-111.1,71.7c1.8,2.9,106.5-79.2,112.2-70.1c2,3.3-116.1,64.5-111.6,71.8
				c7.8,12.4,111.7-71.5,112.5-70.3c2,3.2-111.3,73.4-111.3,73.4c4.8,7.7,112-72.2,113-70.6c5.3,8.5-113.9,70.1-111.7,73.6
				c4.1,6.5,113.2-70.7,113.2-70.7c1.4,2.2-113.4,71.1-112.4,72.7c4.9,7.8,111.1-74.2,113.3-70.8c0,0-119.9,60.9-112.3,73
				c1.8,2.9,111.7-73.3,113.3-70.8c6.5,10.4-112.4,72.6-112.4,72.6c0.9,1.4,113.1-70.7,113.1-70.7c0.1,0.2-120.9,58.7-112,72.9
				c0.1,0.1,109.5-75.9,112.9-70.5c8.5,13.6-111.7,72.7-111.5,73c3.5,5.6,111.8-73.3,113.4-70.8c2,3.2-118.1,63.4-112.4,72.5
				c9,14.4,114.1-75.3,115.9-72.4c4.2,6.7-121.1,64.3-115,74c8.9,14.2,118.6-74.1,118.6-74.1c6.4,10.2-125.7,62.7-117.4,76
				c6.7,10.7,115.4-86.3,121.8-76.1c0,0-122,75.6-120.8,77.6c8.9,14.3,120.6-84.5,124.7-77.9c2.5,4-125.3,76.8-123.4,79.7
				c5,7.9,123-88.4,128.2-80.1c3.3,5.3-133.1,72-127.1,81.6c5.7,9.2,128.9-86.3,131.5-82.2c0,0-138.7,70.1-129.8,84.4
				c5.4,8.6,132.6-92.8,137.1-85.7c0.1,0.2-142.3,77-135.5,87.8c0.3,0.4,143-89.3,143-89.3c7.1,11.4-148.8,79.3-141.2,91.5
				c10.1,16.1,144.9-100,149.1-93.2c0.7,1-147.9,94.7-147.9,94.7c11.3,18.2,147.9-106.3,154.2-96.3c11.2,17.9-153.2,97-152.1,98.8
				c9.5,15.2,153.3-116.9,162.7-101.7c5,7.9-169,90.9-161.2,103.4c11.6,18.6,160.5-120.2,169.4-105.9
				c12.6,20.1-176.8,93.3-167.9,107.5C71,825.8,230.5,688.1,244,709.6C255,727.2,63,811.8,69.4,822
				c6.5,10.4,174.8-136.7,187.1-116.9L71.2,823.5C81.6,840.3,267.7,688.9,273,697.4c4.4,7-202.6,124.1-200.5,127.4
				c31.4,50.3,677.2-522.4,721.8-451c17.2,27.6-753.6,398.7-719.9,452.6c47.3,75.7,664.4-540.8,720.8-450.4
				c36.8,58.9-770.9,368.4-718.6,452.1c0,0,707.9-468.4,719.6-449.7c3.4,5.4-729.6,431.6-717.2,451.5
				c26,41.6,679.2-511.2,718.2-448.8c32.8,52.5-720.4,443.4-716.3,450.1c17.9,28.6,712.8-454.8,717-448.1
				c36.6,58.5-716.9,446-714.5,449.7c39.8,63.7,715.5-447.1,715.5-447.1c22.8,36.5-713.4,448.4-713.4,448.4
				c51.5,82.4,686-491.4,714.2-446.3c9,14.4-760.1,371-712.4,447.3c19.2,30.7,704.5-459,713-445.5c27,43.1-710.2,447.1-710.2,447.1
				s671.2-508.3,711.1-444.4c1.8,2.9-708.4,445.8-708.4,445.8c36.9,59,684.5-482.5,709.1-443.1c33.1,53-756.2,365.2-706.8,444.3
				c11.6,18.6,707.4-442,707.4-442S47.1,758.4,98.6,840.9c4.9,7.9,687.3-468.1,704.7-440.3c8.3,13.2-701.8,441.6-701.8,441.6
				c37.2,59.5,665.2-498.3,702.3-438.9c40.8,65.2-746.9,364.2-699.6,440c22.9,36.6,681.3-467.3,700-437.4
				c50.9,81.5-713.6,411.3-696.5,438.7c52.3,83.7,658.9-496.6,697-435.5c0,0-736.3,370.1-694.9,436.3
				c42.3,67.7,656.8-495.7,695.2-434.4c0,0-738,362.3-692.4,435.3c35.4,56.7,680.1-453.2,692.8-432.9c27.5,44-709.1,402.4-689.3,434
				c54,86.4,647.2-499,689.7-431c53.7,86-715.3,386.2-686.8,431.7c28.9,46.3,636.8-510,687.1-429.4c55,88.1-690.3,419.8-683.8,430.2
				c23.8,38.2,675.3-441.7,684.1-427.5c0,0-695.3,403.7-679.8,428.5c49.5,79.3,634.5-497.8,680.1-425c30,48-682.6,414.7-675.7,425.8
				c50.8,81.2,659.2-448.8,675.8-422.3C835.1,473.7,134,851.4,134,851.4s653-452.4,672.9-420.5c3,4.8-714.3,350.2-670.2,420.9
				C165.9,898.5,806.9,433,806.9,433c36.8,58.9-719.9,333-666,419.3c13.8,22,646.5-446.9,665.8-416c1.1,1.8-666.3,407.6-660.7,416.5
				c18,28.8,620.1-477.3,660.5-412.7c39,62.5-697.2,346.5-655.5,413.1c0,0,609.5-482.3,655.1-409.4L154,853.5
				c0,0,634.7-434.5,651.7-407.2c0,0-660.4,384.8-646.2,407.5c0,0,612.1-457.2,645.7-403.5c9.1,14.6-661.6,370.6-641,403.5
				c11.3,18.1,640.4-400.2,640.4-400.2S142.9,810.5,169.9,853.7c43.1,69,616.9-422.9,633.7-396c50.6,80.9-651.4,357.8-627.7,395.7
				c0,0,593.7-444.3,626.6-391.6c0,0-672.3,311.8-622.6,391.4c11.9,19,621.8-388.5,621.8-388.5c47.3,75.7-620.2,382.8-616.8,388.1
				c5.1,8.2,612.7-390.1,615.9-384.9c0,0-640.7,334.1-609.4,384.3c21.6,34.5,607.8-379.8,607.8-379.8
				c29.1,46.6-626.2,339.2-601.3,379c10.4,16.6,584.7-398.8,599.8-374.8c42.2,67.5-594.1,374.1-594.1,374.1
				c32.3,51.6,592.4-370.2,592.4-370.2C815.4,511.4,192.1,823,209,850c12.5,19.9,581.6-372.5,585.7-366c0,0-592.8,342.3-578.7,364.9
				c29.7,47.6,559.9-386.1,576.2-360.1c7.7,12.3-609.5,291.9-567.9,358.6C261.5,906.9,789,494.5,789,494.5
				c11.3,18.1-602,281.9-558.4,351.6l555.7-347.2c39.5,63.2-573.9,303.6-547.7,345.5c0,0,513.6-387.8,543.6-339.7
				c0,0-549,313.7-534.2,337.4c20.1,32.2,495.6-382.6,528.3-330.1c10.9,17.5-530.7,309.6-519.4,327.8
				c7.3,11.7,510.3-322.1,511.8-319.8c35.2,56.3-541.4,257-503.7,317.4c8.4,13.5,456.5-362.7,491.3-307
				c7.5,11.9-500.3,273.4-481.3,303.8c8,12.7,305.8-233.9,325-203.1c25.5,40.8-317,200.4-317,200.4c4.3,6.9,205-153.8,216.5-135.3
				c4.6,7.4-201.6,129.8-201.6,129.8c8.9,14.2,152.4-100.6,154.8-96.7c1.2,1.9-153,75.8-142.9,91.9c0,0,113.1-89,121.3-75.8
				c0,0-106.5,56.2-100.1,66.4c5,8,63.9-50.4,68.6-42.9c2.4,3.8-48.6,29.5-47.3,31.6c0.5,0.8,19.7-16,21.4-13.4"/>
		</g>
	</g>
	<g>
		<path class="st2" d="M154,704.9c11.2,11.2,12-12.2,10.5-29c-4.3-47.1-0.4-93.7,2.5-140.7c1.4-23.3,2.1-46.7,0.9-70
			c-0.6-12.5-2-24.9-2.9-37.4c-4.4-59-6.8-118.4-7.1-177.6c-0.2-31.6-0.3-63.6,3.9-94.9c-0.8,5.7-1.5,11.4-2.3,17.1
			c1.4-10.6,3.9-20.6,8-30.5c-2.2,5.1-4.3,10.2-6.5,15.4c2.4-5.4,5.1-10.5,8.6-15.2c-3.4,4.3-6.7,8.7-10.1,13
			c3-3.9,6.3-7.3,10.2-10.4c-4.3,3.4-8.7,6.7-13,10.1c4.2-3.2,8.6-5.7,13.4-7.8c-5.1,2.2-10.2,4.3-15.4,6.5c7-2.9,14.3-4.7,21.8-5.8
			c-5.7,0.8-11.4,1.5-17.1,2.3c9.8-1.2,19.6-0.9,29.4,0.3c-5.7-0.8-11.4-1.5-17.1-2.3C193.7,151,215,158.6,236,166
			c21,7.4,41.8,15.6,62.4,24.2c-5.1-2.2-10.2-4.3-15.4-6.5c54.7,23.2,107.7,49.6,157.5,82c23.1,15,45.9,30.7,69.6,44.9
			c22.3,13.5,45.5,25.4,68.3,38.1c26.8,14.9,53,31,77.3,49.7c-4.3-3.4-8.7-6.7-13-10.1c12.1,9.4,23.6,19.6,33.1,31.7
			c-3.4-4.3-6.7-8.7-10.1-13c6.1,7.9,11.2,16.4,15.1,25.6c-2.2-5.1-4.3-10.2-6.5-15.4c2.9,7,4.9,14.2,6,21.7
			c-0.8-5.7-1.5-11.4-2.3-17.1c0.7,5.8,0.7,11.6,0,17.4c0.8-5.7,1.5-11.4,2.3-17.1c-0.7,4.8-2,9.5-3.8,14c2.2-5.1,4.3-10.2,6.5-15.4
			c-2,4.7-4.6,9-7.6,13c3.4-4.3,6.7-8.7,10.1-13c-4.8,6.2-10.5,11.4-16.7,16.2c4.3-3.4,8.7-6.7,13-10.1c-12.7,9.6-27,16.8-40.5,25.2
			c-10.9,6.7-21.7,13.6-32.5,20.6c-28.6,18.3-57,36.9-85.4,55.4c-20.9,13.6-41.6,27.4-62.7,40.6c-38.2,23.9-74.2,50.5-110.1,77.7
			c-30.1,22.8-61.3,45.1-96.2,59.9c5.1-2.2,10.2-4.3,15.4-6.5c-29.3,12.3-60.4,21.3-91.9,25.7c5.7-0.8,11.4-1.5,17.1-2.3
			c-15.9,2.1-32.1,3.1-48,0.9c5.7,0.8,11.4,1.5,17.1,2.3c-6.9-1-13.7-2.6-20.2-5.2c5.1,2.2,10.2,4.3,15.4,6.5
			c-3.9-1.7-7.6-3.7-11-6.2c4.3,3.4,8.7,6.7,13,10.1c-2.6-2-5-4.3-7-6.9c3.4,4.3,6.7,8.7,10.1,13c-1.9-2.5-3.4-5.1-4.7-8
			c2.2,5.1,4.3,10.2,6.5,15.4c-1.5-3.6-2.4-7.3-3-11.2c0.8,5.7,1.5,11.4,2.3,17.1c-0.3-2.6-0.4-5.2-0.4-7.8
			c0.2-16.4-7.3-33.9-18.8-45.5c-11.2-11.2-79.4-12.6-91,0c-11.6,12.7-18.7,28-18.8,45.5l0,0c-0.1,11.1,1,22.8,4.6,33.3
			c5.5,16.4,11.7,26.6,22.7,39.7c13.1,15.6,33.6,25.9,52.8,31.6c16.7,5,35,6.6,52.4,6.3c20-0.3,40-3.3,59.6-7.1
			c34.1-6.5,66.7-18.4,98.2-32.6c28.7-13,54.9-31.4,80.1-50.1c30.5-22.7,60.5-46.1,92.2-67.1c22.5-14.9,45.4-29.1,68-43.8
			c47.5-30.9,94.5-62.8,142.9-92.1c4.3-2.6,8.8-5.1,13.2-7.6c14-8.1,26.8-17.2,39.4-27.4c28.1-22.7,43.8-57.5,45-93.3
			c0.3-9.8-1.5-20-3-29.5c-0.9-5.4-2.2-10.8-4.1-15.9c-5.2-14.4-11.4-28.9-20.4-41.4c-9.5-13.3-19.7-25.8-31.9-36.8
			c-12.6-11.3-26.2-21.5-40-31.3c-36.1-25.4-75-45.6-113.4-67.1c-39.2-22-75.5-48.5-113.8-71.9c-42.2-25.8-87.2-47-132.6-66.3
			c-28.3-12-56.7-23.5-85.8-33.5c-28.4-9.8-57.6-18.2-88-18.7c-36.5-0.5-76,11.7-101.5,38.8c-15,15.9-23.6,32.7-31.1,53
			c-2.1,5.6-3.7,11.4-4.8,17.3c-5.5,29.2-6.9,59.1-7.4,88.7c-1,61.4,1.5,122.9,5.3,184.2c1.5,24.5,4.3,49,5,73.5
			c1.3,43.5-4.1,86.8-5.6,130.2c-0.8,23.3-0.3,46.7,1.8,69.9c-0.3,8.9,1.5,17.1,5.5,24.8c2.6,8,7,14.9,13.3,20.7"/>
	</g>
</g>
</svg>
