<?xml version="1.0" encoding="utf-8"?>
<!-- Generator: Adobe Illustrator 19.0.0, SVG Export Plug-In . SVG Version: 6.00 Build 0)  -->
<svg version="1.1" preserveAspectRatio="none" xmlns="http://www.w3.org/2000/svg" xmlns:xlink="http://www.w3.org/1999/xlink" x="0px" y="0px"
	 viewBox="0 0 144.8 61.9" style="enable-background:new 0 0 144.8 61.9;" xml:space="preserve">
<style type="text/css">
	.st0{display:none;}
	.st1{display:inline;fill:#D35541;}
	.st2{fill:#508749;}
</style>
<g id="Layer_1" class="st0">
	<path id="XMLID_8_" class="st1" d="M144.8,61.9c-0.5-2.6-1.1-5.1-1.2-6.5c-1.3-13.1,1.3-22.9,0-36c-0.2-2.1,0.3-9.3-0.9-11
		c-1.4-2.1-8.8-1.8-11.1-2c-38.3-4-78.2-8.6-116.9-5.3c-1.8,0.2-3.8,0.4-5,2.1C9,4.2,8.2,7.1,8,8.4c-0.4,3-0.2,4.5-0.7,7.5
		c-2,11.5-6,31-7.3,46H144.8z"/>
</g>
<g id="Layer_2">
	<path id="XMLID_54_" class="st2" d="M0.8,63.7c0,0,6-28.5,5.4-35.8S-0.6,7.2,3.6,5.3S41.8,2.1,50,2.1s42.1,2.8,49.5,2.3
		s19.4,0.1,22.9-0.6s18.5-4.3,18.3,1.8s3,12.3,2.5,17.4s-0.5,45,1,47.5S4.7,82.6,4.7,82.6L0.8,63.7z"/>
</g>
</svg>
